<?xml version="1.0" encoding="UTF-8"?>
<svg width="150px" height="22px" viewBox="0 0 150 22" version="1.1" xmlns="http://www.w3.org/2000/svg" xmlns:xlink="http://www.w3.org/1999/xlink">
    <title>Swarm Gateway logo</title>
    <g id="Desktop" stroke="none" stroke-width="1" fill="none" fill-rule="evenodd">
        <g id="Home-—-Desktop" transform="translate(-645.000000, -69.000000)" fill="#242424" fill-rule="nonzero">
            <g id="Swarm-Gateway-logo" transform="translate(645.000000, 69.360090)">
                <path d="M93.6362469,17.3430865 C93.982923,17.3430865 94.2814496,17.299752 94.5318268,17.213083 C94.782204,17.1264139 94.996469,17.0132627 95.174622,16.8736293 C95.352775,16.7339959 95.4996309,16.5726952 95.6151895,16.3897273 C95.7307482,16.2067593 95.8318621,16.0189765 95.9185311,15.8263786 L95.9185311,15.8263786 L95.9907553,15.8263786 L95.9907553,17.1697485 L97.1174526,17.1697485 L97.1174526,12.1862798 L93.8673643,12.1862798 L93.8673643,13.1540838 L95.9907553,13.1540838 L95.9907553,14.1941121 C95.9907553,14.820055 95.8077874,15.3304392 95.4418515,15.7252648 C95.0759156,16.1200903 94.5655314,16.3175031 93.9106988,16.3175031 C93.4966135,16.3175031 93.1475299,16.2332415 92.8634481,16.0647184 C92.5793664,15.8961953 92.348249,15.6578555 92.170096,15.349699 C91.991943,15.0415425 91.8643469,14.6780141 91.7873078,14.2591138 C91.7102687,13.8402136 91.6717491,13.3755713 91.6717491,12.8651871 L91.6717491,12.8651871 L91.6717491,11.3051447 C91.6717491,10.2940062 91.8619395,9.48509529 92.2423202,8.87841215 C92.6227009,8.271729 93.2173466,7.96838743 94.0262575,7.96838743 C94.3247841,7.96838743 94.5847912,8.01172194 94.8062787,8.09839096 C95.0277662,8.18505998 95.2179565,8.30302615 95.3768497,8.45228946 C95.5357429,8.60155277 95.6705614,8.77489082 95.7813052,8.97230359 C95.8920489,9.16971635 95.9907553,9.37916649 96.0774243,9.60065398 L96.0774243,9.60065398 L97.1174526,9.12397437 C97.0115238,8.85433742 96.8767053,8.58710794 96.7129971,8.32228593 C96.549289,8.05746392 96.3446538,7.81912412 96.0990916,7.60726651 C95.8535294,7.3954089 95.5574102,7.22688581 95.2107341,7.10169722 C94.864058,6.97650864 94.4547877,6.91391435 93.982923,6.91391435 C92.7599268,6.91391435 91.854717,7.36170429 91.2672937,8.25728416 C90.6798703,9.15286404 90.3861586,10.4673442 90.3861586,12.2007246 C90.3861586,13.8570659 90.6533881,15.1282115 91.1878471,16.0141615 C91.722306,16.9001115 92.5384393,17.3430865 93.6362469,17.3430865 Z M99.9486406,17.1697485 L100.800886,14.2952259 L104.339871,14.2952259 L105.192116,17.1697485 L106.477707,17.1697485 L103.386512,7.08725239 L101.783135,7.08725239 L98.6919398,17.1697485 L99.9486406,17.1697485 Z M104.050974,13.2407529 L101.089783,13.2407529 L102.505377,8.37284286 L102.63538,8.37284286 L104.050974,13.2407529 Z M111.851186,17.1697485 L111.851186,8.14172547 L115.216833,8.14172547 L115.216833,7.08725239 L107.272173,7.08725239 L107.272173,8.14172547 L110.63782,8.14172547 L110.63782,17.1697485 L111.851186,17.1697485 Z M123.089269,17.1697485 L123.089269,16.1152754 L118.091356,16.1152754 L118.091356,12.5907352 L122.915931,12.5907352 L122.915931,11.5362621 L118.091356,11.5362621 L118.091356,8.14172547 L123.089269,8.14172547 L123.089269,7.08725239 L116.877989,7.08725239 L116.877989,17.1697485 L123.089269,17.1697485 Z M127.292717,17.1697485 L128.520528,11.1462515 L128.636086,11.1462515 L129.863898,17.1697485 L131.611723,17.1697485 L132.406189,7.08725239 L131.351716,7.08725239 L130.932815,12.8651871 L130.716143,15.9130477 L130.600584,15.9130477 L129.271659,9.71621268 L127.913845,9.71621268 L126.58492,15.9130477 L126.469361,15.9130477 L126.252688,12.8651871 L125.833788,7.08725239 L124.750425,7.08725239 L125.544891,17.1697485 L127.292717,17.1697485 Z M134.616249,17.1697485 L135.468494,14.2952259 L139.007479,14.2952259 L139.859725,17.1697485 L141.145315,17.1697485 L138.05412,7.08725239 L136.450743,7.08725239 L133.359548,17.1697485 L134.616249,17.1697485 Z M138.718582,13.2407529 L135.757391,13.2407529 L137.172985,8.37284286 L137.302988,8.37284286 L138.718582,13.2407529 Z M146.518794,17.1697485 L146.518794,13.2118632 L150,7.08725239 L148.642185,7.08725239 L147.197702,9.71621268 L145.941001,12.0129417 L145.883222,12.0129417 L144.65541,9.71621268 L143.210927,7.08725239 L141.824222,7.08725239 L145.305428,13.2118632 L145.305428,17.1697485 L146.518794,17.1697485 Z" id="GATEWAY"></path>
                <g id="Swarm-logo" transform="translate(-0.000000, 0.000000)">
                    <path d="M46.9874958,6.8938203 L45.7037439,15.8329402 C45.7037439,15.8329402 45.6819854,15.8329402 45.678359,15.8329402 L44.5541695,6.8938203 C44.5541695,6.8938203 44.5541695,6.8938203 44.5541695,6.8938203 L41.3556689,6.8938203 L40.227853,15.8329402 C40.227853,15.8329402 40.2060945,15.8329402 40.2024681,15.8329402 L38.9187162,6.8938203 L36.9677034,6.8938203 C36.9677034,6.8938203 36.9677034,6.8938203 36.9677034,6.8938203 L38.5597008,17.2436168 L41.7509485,17.2436168 L42.9295343,8.32262892 C42.9295343,8.32262892 42.9512928,8.32262892 42.9549192,8.32262892 L44.1189993,17.2472432 L47.3138734,17.2472432 L48.942135,6.90107313 L46.9947487,6.90107313 C46.9947487,6.90107313 46.9874958,6.87206179 46.9874958,6.8938203 Z" id="path28546"></path>
                    <path d="M82.8019983,7.37613387 C82.3238195,6.84677455 81.6322045,6.56159994 80.9198875,6.60008045 C79.9529616,6.55894175 79.0528261,7.09219734 78.624365,7.95998714 L78.624365,7.95998714 C78.4926142,7.58653163 78.2589623,7.25740896 77.9498513,7.00986567 C77.5730978,6.72502673 77.1089769,6.5801492 76.637088,6.60008045 C76.1812817,6.58893743 75.7326817,6.71530363 75.3497097,6.96272223 C75.0300494,7.18569101 74.7788849,7.49336747 74.6244261,7.8511946 L74.6244261,6.8938203 C74.6244261,6.8938203 74.6244261,6.8938203 74.6244261,6.8938203 L72.7241832,6.8938203 C72.7241832,6.8938203 72.7241832,6.8938203 72.7241832,6.8938203 L72.7241832,17.2399904 L74.6244261,17.2399904 L74.6244261,10.1684756 C74.6038711,9.71719228 74.7312017,9.27153519 74.9870679,8.89922936 C75.2166008,8.59327466 75.5844053,8.42299476 75.9662007,8.44592713 C76.2853302,8.43140667 76.5932385,8.56527986 76.8002768,8.80856891 C77.0242673,9.08856296 77.1389592,9.44037068 77.123028,9.79858098 L77.123028,17.2327375 C77.123028,17.2327375 77.123028,17.2327375 77.123028,17.2327375 L79.0268974,17.2327375 L79.0268974,10.2881474 C78.9844867,9.79041857 79.1123476,9.29303972 79.3895392,8.87747085 C79.620002,8.59327803 79.9703496,8.433541 80.3360342,8.44592713 C80.6734854,8.40829169 81.0068993,8.54493673 81.2208802,8.80856891 C81.428218,9.12163775 81.5310502,9.49234145 81.51462,9.86748292 L81.51462,17.2218583 C81.51462,17.2218583 81.51462,17.2218583 81.51462,17.2218583 L83.4293686,17.2218583 L83.4293686,9.35978442 C83.4665794,8.64451134 83.2437405,7.93992825 82.8019983,7.37613387 L82.8019983,7.37613387 Z" id="path28548"></path>
                    <path d="M60.4886494,16.1266801 L59.2846787,17.4720811 L59.2665466,17.4720811 L57.1414658,15.6334873 C57.1414658,15.6334873 57.1414658,15.6334873 57.1414658,15.6334873 L54.6029733,17.1166922 C54.1880207,17.3579898 53.7158084,17.483245 53.2358138,17.4794228 C52.5162782,17.4738561 51.8250805,17.1981536 51.2993066,16.7069069 C50.7540912,16.1958466 50.4510049,15.4776639 50.4652305,14.7305092 C50.4624108,13.7433692 50.9918819,12.8313483 51.8505221,12.3443263 L56.9673977,9.41055427 C56.9673977,9.41055427 56.9673977,9.41055427 56.9673977,9.41055427 L56.9673977,8.75779906 L50.972929,8.75779906 C50.972929,8.75779906 50.972929,8.75779906 50.972929,8.75779906 L50.972929,6.94459015 C50.972929,6.94459015 50.972929,6.94459015 50.972929,6.94459015 L58.7951123,6.94459015 L58.7951123,14.6906186 C58.7951123,14.6906186 58.7951123,14.6906186 58.7951123,14.6906186 L60.4705173,16.1411858 L60.4886494,16.1266801 Z M53.6709839,15.5246947 L56.9673977,13.6099461 C56.9673977,13.6099461 56.9673977,13.6099461 56.9673977,13.6099461 L56.9673977,11.542888 L52.7680059,13.9544558 C52.4756315,14.1124901 52.2953473,14.4199516 52.300198,14.7522677 C52.3116957,15.2541403 52.7158091,15.6582537 53.2176817,15.6697514 C53.386421,15.6663766 53.5508992,15.6161543 53.6927424,15.5246947 L53.6709839,15.5246947 Z" id="path28550"></path>
                    <path d="M69.6562337,7.59734536 C69.0236618,6.94185582 68.1482724,6.5770009 67.237413,6.5892012 C66.171925,6.55987169 65.1592465,7.05267243 64.5248525,7.90921729 L63.3136289,6.79953343 L62.1205374,8.13042878 L63.8394595,9.68978844 L63.8394595,15.3832644 L62.1314167,15.3832644 C62.1314167,15.3832644 62.1314167,15.3832644 62.1314167,15.3832644 L62.1314167,17.1710884 L68.296327,17.1710884 C68.296327,17.1710884 68.296327,17.1710884 68.296327,17.1710884 L68.296327,15.3832644 L65.6889326,15.3832644 L65.6889326,10.1104529 C65.6722529,9.26019601 66.2965352,8.53290714 67.1394997,8.4205422 C67.5913214,8.37770596 68.0402959,8.52710736 68.3763657,8.8321235 C68.7124356,9.13713965 68.9045316,9.56957232 68.9055652,10.0234189 L68.9055652,10.6181514 C68.9055652,10.6181514 68.9055652,10.6181514 68.9055652,10.6181514 L70.6933892,10.6181514 C70.6933892,10.6181514 70.6933892,10.6181514 70.6933892,10.6181514 L70.6933892,10.0234189 C70.7000605,9.1056913 70.3242613,8.22663665 69.6562337,7.59734536 L69.6562337,7.59734536 Z" id="path28552"></path>
                    <path d="M35.0493283,12.9426852 C34.9271202,12.6617704 34.7408256,12.4133777 34.5053657,12.2174017 C34.260287,11.9846907 33.9685709,11.8066944 33.6495311,11.6951975 C33.3329418,11.5434003 33.0026674,11.4219759 32.6631454,11.3325557 C32.3222621,11.2418953 31.9378618,11.143982 31.5462087,11.0678272 C30.9271685,10.9700856 30.3289464,10.7690437 29.7765168,10.4730947 C29.444642,10.2963557 29.2349341,9.95332357 29.2289277,9.57736949 C29.2038102,9.1974092 29.3926347,8.83514595 29.7184941,8.63812727 C30.1938653,8.34113995 30.7666668,8.24220151 31.314118,8.36251952 C31.8386805,8.49314744 32.3207616,8.75666842 32.7139153,9.12769368 C32.7973229,9.19659562 33.6241461,9.96176978 33.6096405,9.97990187 L34.8027319,8.62724802 C34.8027319,8.62724802 34.2297579,8.04702117 33.9577766,7.80767759 C33.3186818,7.21148119 32.5264317,6.80468395 31.6695069,6.63271821 C30.7753118,6.49397678 29.8600791,6.63322381 29.0476068,7.03162417 C28.8325346,7.14195659 28.6295645,7.27443403 28.441995,7.42690372 C27.7664028,7.95983669 27.3797857,8.77871306 27.3975867,9.63901859 C27.3975867,10.5818872 27.694953,11.2527745 28.3041912,11.6915711 C29.0386612,12.1902501 29.8704504,12.5276624 30.7447704,12.6815832 C31.4337936,12.804234 32.1066013,13.0049813 32.7501794,13.2799421 C33.10016,13.3922066 33.3347148,13.7211735 33.3267799,14.0886333 C33.343151,14.531076 33.1182375,14.9475825 32.7393002,15.1765586 C31.8126054,15.7022496 30.6778267,15.7022496 29.7511319,15.1765586 C29.3814593,14.9353303 29.0354112,14.659706 28.7176028,14.3533618 C28.4601271,14.1357767 28.2171571,13.9000595 27.9669343,13.6679688 L27.9669343,13.6679688 L26.8064806,15.0641397 C26.8064806,15.0641397 27.3722018,15.5935967 27.4229716,15.6371137 C28.1603313,16.3846567 29.0905053,16.9131361 30.1101472,17.1638356 C30.4870535,17.2422725 30.871116,17.2811649 31.2560953,17.279881 C32.2782498,17.3147044 33.2819423,17.00145 34.1028333,16.3914086 C34.8799622,15.8098796 35.322968,14.8845802 35.2886719,13.9145652 C35.2836819,13.5766393 35.201833,13.2442829 35.0493283,12.9426852 L35.0493283,12.9426852 Z" id="path28554"></path>
                    <polygon id="polygon28556" points="5.15344969e-15 18.538248 4.88478482 21.2798198 9.76956964 18.538248 9.76956964 13.0659834 4.88478482 10.3207851 5.15344969e-15 13.0659834"></polygon>
                    <polygon id="polygon28558" points="16.1484386 5.15344969e-15 13.5664291 1.45056713 13.5628027 1.47232564 13.5628027 4.36983349 16.1484386 5.82040062 16.1701971 5.83127987 18.7522066 4.38433916 18.7522066 1.46144639"></polygon>
                    <polygon id="polygon28560" points="20.9498158 13.0659834 16.065031 10.3207851 11.1802462 13.0659834 11.1802462 18.538248 16.065031 21.2798198 20.9498158 18.538248"></polygon>
                    <polygon id="polygon28562" points="10.4368305 0.765174162 5.55929853 3.50674604 5.55929853 8.97901055 10.4440834 11.7205824 15.3288682 8.97901055 15.3288682 6.79953343 12.9499381 5.46501167 12.3080621 5.10599631 12.3080621 4.36983349 12.3080621 1.88211085"></polygon>
                </g>
            </g>
        </g>
    </g>
</svg>
